<svg width="138" height="120" viewBox="0 0 138 120" fill="none" xmlns="http://www.w3.org/2000/svg">
<g clip-path="url(#clip0_1_157)">
<path d="M137.599 51.7291C136.874 37.0877 127.497 23.1209 114.984 13.2197C102.472 3.31853 86.7948 -2.45172 74.9913 1.00463C63.1879 4.46097 55.3341 17.2128 45.5163 27.0922C35.6986 36.9716 23.9514 44.0239 22.196 52.6412C21.6846 55.1618 22.0255 57.8149 23.0084 60.4388L33.8725 59.3182C35.3922 59.1664 36.9103 59.622 38.0953 60.5855C39.2804 61.549 40.0361 62.9422 40.1976 64.461C40.3201 65.6699 40.0589 66.8867 39.4513 67.9389C38.8436 68.9911 37.9203 69.8255 36.812 70.3237C36.9727 70.6391 37.0735 70.9816 37.1094 71.3338L37.2617 72.8081C37.278 72.9836 37.278 73.1602 37.2617 73.3358C37.9742 73.2738 38.6826 73.4938 39.2346 73.9485C39.7866 74.4032 40.1383 75.0564 40.2139 75.7675L40.446 78.0089C41.6919 78.6218 42.9649 79.1695 44.2669 79.6645V66.2109H44.2778C44.2714 66.1835 44.2677 66.1556 44.2669 66.1275C44.2669 64.7021 50.7843 63.5452 58.8249 63.5452C61.0481 63.5452 63.1535 63.6341 65.0376 63.7918V29.8214L72.1298 19.4215H72.0047V13.12C72.0047 12.8375 72.0604 12.5577 72.1686 12.2968C72.2768 12.0358 72.4354 11.7988 72.6353 11.5992C72.8353 11.3996 73.0726 11.2414 73.3337 11.1336C73.5949 11.0258 73.8747 10.9706 74.1572 10.9711H99.5666C99.8488 10.9708 100.128 11.0263 100.389 11.1342C100.65 11.2421 100.887 11.4003 101.087 11.5999C101.286 11.7995 101.444 12.0365 101.552 12.2973C101.66 12.5582 101.716 12.8377 101.715 13.12V19.4215L94.781 29.8214V89.4152C95.7578 89.5228 96.7316 89.6147 97.7024 89.6908V86.2127C97.7094 84.0735 98.4566 82.0026 99.8172 80.3518C101.178 78.701 103.068 77.572 105.166 77.1566V75.1437H128.686V77.1566C129.074 77.2323 129.456 77.3335 129.83 77.4594C135.153 70.3328 138.074 60.8994 137.599 51.7291Z" fill="#F8F8F8"/>
<path d="M58.4386 58.7378C58.2881 58.7378 58.1394 58.7378 57.9907 58.7523L55.6714 58.7378C55.5263 58.7378 55.3812 58.7378 55.238 58.7505L53.0728 58.7378C52.9404 58.7378 52.808 58.7378 52.6774 58.7487L50.962 58.7378C50.8205 58.7378 50.6791 58.7378 50.5394 58.7505L48.5247 58.7378C48.3893 58.7378 48.2533 58.7415 48.1167 58.7487L46.2507 58.7378C46.1274 58.7378 46.0041 58.7378 45.8881 58.7378H44.4936C44.3485 58.7378 44.2034 58.7378 44.0602 58.7505L41.9004 58.7378C41.7626 58.7378 41.6266 58.7378 41.4906 58.7487L39.6191 58.7378C39.4813 58.7378 39.3453 58.7378 39.2093 58.7487L37.3379 58.7378C37.2309 58.7378 37.1239 58.7378 37.0187 58.7378H35.9905C35.8545 58.7378 35.7221 58.7378 35.5879 58.7487L33.8108 58.7378C33.6827 58.7378 33.5539 58.7415 33.4246 58.7487L31.8143 58.7378C31.6855 58.7378 31.5586 58.7378 31.4316 58.7378H29.8667C29.7016 58.7378 29.5384 58.7378 29.377 58.756L26.559 58.7378C26.4484 58.7378 26.3378 58.7378 26.2272 58.7378H25.1573C25.0339 58.7378 24.9106 58.7378 24.7946 58.7378H23.4001C23.2768 58.7378 23.1535 58.7378 23.0374 58.7378H21.6429C20.6605 58.7333 19.6891 58.9445 18.7974 59.3565C17.9056 59.7686 17.1152 60.3714 16.4819 61.1225L33.8906 59.3272C35.4103 59.1754 36.9284 59.631 38.1135 60.5945C39.2985 61.5581 40.0542 62.9512 40.2157 64.47C40.3348 65.6795 40.07 66.8958 39.4591 67.9465C38.8482 68.9971 37.922 69.8288 36.812 70.3237C36.9727 70.6391 37.0735 70.9815 37.1094 71.3337L37.2617 72.808C37.278 72.9835 37.278 73.1602 37.2617 73.3357C37.9742 73.2738 38.6826 73.4938 39.2346 73.9485C39.7866 74.4032 40.1383 75.0563 40.2139 75.7675L43.2314 105.018C43.3035 105.736 43.0883 106.453 42.633 107.013C42.1777 107.573 41.5192 107.93 40.8015 108.006L16.3206 110.532C16.8562 111.165 17.5227 111.674 18.274 112.025C19.0253 112.375 19.8436 112.559 20.6727 112.563L44.2759 112.706V66.2109H44.2868C44.2804 66.1835 44.2768 66.1555 44.2759 66.1274C44.2759 64.7021 50.7933 63.5452 58.8339 63.5452C61.0572 63.5452 63.1625 63.634 65.0466 63.7918V58.7777L58.4386 58.7378Z" fill="#D3D3D3"/>
<path d="M87.4966 19.4215H101.715L94.781 29.8214H65.0413L72.1335 19.4215H75.9579" stroke="black" stroke-width="2.5" stroke-linecap="round" stroke-linejoin="round"/>
<path d="M101.715 19.4215V13.1199C101.716 12.8377 101.66 12.5581 101.552 12.2973C101.444 12.0365 101.286 11.7995 101.087 11.5999C100.887 11.4003 100.65 11.2421 100.389 11.1342C100.128 11.0263 99.8488 10.9708 99.5666 10.9711H74.1572C73.5873 10.9711 73.0407 11.1975 72.6377 11.6005C72.2347 12.0035 72.0083 12.55 72.0083 13.1199V19.4215" stroke="black" stroke-width="2.5" stroke-linecap="round" stroke-linejoin="round"/>
<path d="M65.0413 63.7918V29.8214H94.7811V116.643L73.3811 114.059" stroke="black" stroke-width="2.5" stroke-linecap="round" stroke-linejoin="round"/>
<path d="M82.1146 23C85.5469 22.0764 87.9677 19.984 87.5217 18.3263C87.0757 16.6687 83.9317 16.0736 80.4994 16.9971C77.0671 17.9207 74.6462 20.0131 75.0923 21.6708C75.5383 23.3284 78.6823 23.9235 82.1146 23Z" stroke="black" stroke-width="2.5" stroke-linecap="round" stroke-linejoin="round"/>
<path d="M101.715 19.4215L94.781 29.8214L107.232 29.912L101.715 19.4215Z" fill="black"/>
<path d="M90.1823 53.7384L69.3989 53.5353C69.0043 53.5319 68.627 53.3728 68.3492 53.0926C68.0714 52.8124 67.9155 52.4338 67.9155 52.0392V35.0603C67.9158 34.8626 67.9552 34.6668 68.0314 34.4843C68.1077 34.3018 68.2194 34.1363 68.36 33.9972C68.5006 33.8581 68.6674 33.7482 68.8507 33.6739C69.034 33.5996 69.2301 33.5624 69.4279 33.5643L90.2113 33.7656C90.6059 33.7699 90.9829 33.9295 91.2606 34.2099C91.5382 34.4903 91.6942 34.8688 91.6947 35.2634V52.2405C91.6944 52.4384 91.6551 52.6342 91.5788 52.8168C91.5025 52.9994 91.3909 53.165 91.2503 53.3043C91.1097 53.4435 90.943 53.5535 90.7597 53.628C90.5764 53.7025 90.3801 53.74 90.1823 53.7384Z" fill="black"/>
<path d="M88.7913 23.0447L87.522 18.3299C87.9681 19.9873 85.5472 22.08 82.1144 23.003C78.6816 23.926 75.539 23.3312 75.0929 21.6738L76.3623 26.3886C76.8084 28.0461 79.9528 28.6427 83.3838 27.7178C86.8147 26.793 89.2356 24.7022 88.7913 23.0447Z" fill="black"/>
<path d="M97.7024 107.264H136.15" stroke="#D3D3D3" stroke-width="8.52" stroke-miterlimit="10"/>
<path d="M97.7024 85.7866H136.15" stroke="#D3D3D3" stroke-width="8.52" stroke-miterlimit="10"/>
<path d="M58.8285 68.7097C66.8686 68.7097 73.3865 67.5536 73.3865 66.1275C73.3865 64.7013 66.8686 63.5452 58.8285 63.5452C50.7883 63.5452 44.2705 64.7013 44.2705 66.1275C44.2705 67.5536 50.7883 68.7097 58.8285 68.7097Z" stroke="black" stroke-width="2.5" stroke-linecap="round" stroke-linejoin="round"/>
<path d="M68.037 78.3824C66.3433 78.3824 65.4819 75.7693 62.3048 75.7693C56.8302 75.7693 57.911 78.3824 50.2729 78.3824H49.6201C49.3054 78.3822 48.9937 78.444 48.7028 78.5643C48.412 78.6846 48.1477 78.861 47.925 79.0834C47.7024 79.3059 47.5258 79.5701 47.4053 79.8608C47.2848 80.1516 47.2228 80.4632 47.2228 80.778V114.181C47.2233 114.816 47.476 115.426 47.9256 115.875C48.3751 116.324 48.9846 116.576 49.6201 116.576H68.037C68.6725 116.576 69.282 116.324 69.7315 115.875C70.1811 115.426 70.4338 114.816 70.4343 114.181V80.778C70.4343 80.4632 70.3723 80.1516 70.2518 79.8608C70.1313 79.5701 69.9547 79.3059 69.7321 79.0834C69.5094 78.861 69.2451 78.6846 68.9543 78.5643C68.6634 78.444 68.3517 78.3822 68.037 78.3824Z" fill="#D3D3D3"/>
<path d="M115.323 63.0465C116.886 63.0465 118.152 61.7799 118.152 60.2176C118.152 58.6552 116.886 57.3887 115.323 57.3887C113.761 57.3887 112.494 58.6552 112.494 60.2176C112.494 61.7799 113.761 63.0465 115.323 63.0465Z" fill="black"/>
<path d="M121.792 57.3887C122.902 57.3887 123.803 56.4883 123.803 55.3776C123.803 54.2669 122.902 53.3666 121.792 53.3666C120.681 53.3666 119.781 54.2669 119.781 55.3776C119.781 56.4883 120.681 57.3887 121.792 57.3887Z" fill="black"/>
<path d="M122.878 62.3882C123.478 62.3882 123.964 61.9019 123.964 61.302C123.964 60.7021 123.478 60.2158 122.878 60.2158C122.278 60.2158 121.792 60.7021 121.792 61.302C121.792 61.9019 122.278 62.3882 122.878 62.3882Z" fill="black"/>
<path d="M46.5917 40.1504C47.8736 40.1504 48.9128 39.1112 48.9128 37.8293C48.9128 36.5474 47.8736 35.5081 46.5917 35.5081C45.3097 35.5081 44.2705 36.5474 44.2705 37.8293C44.2705 39.1112 45.3097 40.1504 46.5917 40.1504Z" fill="black"/>
<path d="M50.2801 45.5798C51.0363 45.5798 51.6493 44.9669 51.6493 44.2107C51.6493 43.4546 51.0363 42.8416 50.2801 42.8416C49.524 42.8416 48.911 43.4546 48.911 44.2107C48.911 44.9669 49.524 45.5798 50.2801 45.5798Z" fill="black"/>
<path d="M42.9957 75.6297C42.8981 74.6789 42.5652 73.7673 42.0269 72.9774C41.4887 72.1874 40.7622 71.544 39.9129 71.1053C40.7437 70.4 41.3904 69.5032 41.7973 68.4923C42.2042 67.4813 42.3591 66.3866 42.2486 65.3024L42.0527 63.4074C41.8638 61.6395 40.9833 60.018 39.6033 58.8969C38.2233 57.7758 36.4559 57.246 34.6867 57.4232L6.07487 60.3754C2.40273 60.749 -0.415293 64.3921 0.0507507 68.3997C0.518608 72.4381 1.87685 73.8091 3.75009 74.8355C3.00841 75.4382 2.42855 76.2162 2.06287 77.0992C1.6972 77.9822 1.55723 78.9424 1.65561 79.893L4.64228 108.848C4.79918 110.367 5.5533 111.763 6.73879 112.726C7.92428 113.69 9.44404 114.143 10.9638 113.987L40.8432 110.904C42.1341 110.773 43.3424 110.208 44.2705 109.301V87.9826L42.9957 75.6297ZM40.8015 108.006L10.4089 111.142C9.69086 111.213 8.97366 110.998 8.41379 110.543C7.85392 110.087 7.49682 109.429 7.42041 108.712L4.40473 79.4615C4.33991 78.7925 4.52402 78.1232 4.92182 77.5815C5.31963 77.0399 5.9032 76.6639 6.56086 76.5256C6.50836 76.3523 6.47253 76.1743 6.45387 75.9942L6.30154 74.5199C6.26565 74.1677 6.29454 73.8118 6.38677 73.47C5.20213 73.2088 4.12953 72.5819 3.32058 71.6779C2.51162 70.774 2.00721 69.6386 1.87866 68.4323C1.72641 66.9125 2.18183 65.3942 3.14544 64.209C4.10905 63.0239 5.50253 62.2682 7.02146 62.1072L33.8725 59.3363C35.3922 59.1846 36.9103 59.6402 38.0953 60.6037C39.2804 61.5672 40.0361 62.9604 40.1976 64.4791C40.3161 65.6851 40.0531 66.8979 39.4457 67.9464C38.8383 68.995 37.9171 69.8265 36.812 70.3237C36.9727 70.6391 37.0736 70.9816 37.1094 71.3338L37.2617 72.8081C37.278 72.9836 37.278 73.1603 37.2617 73.3358C37.9742 73.2738 38.6826 73.4938 39.2346 73.9486C39.7867 74.4033 40.1383 75.0564 40.214 75.7676L43.2315 105.018C43.3035 105.736 43.0884 106.453 42.633 107.013C42.1777 107.573 41.5192 107.93 40.8015 108.006Z" fill="#D3D3D3"/>
<path d="M73.3865 66.2109V119.773H44.2705V66.2109" stroke="black" stroke-width="2.5" stroke-linecap="round" stroke-linejoin="round"/>
<path d="M128.686 77.1566V75.1437H105.166V77.1566C103.068 77.572 101.178 78.701 99.8172 80.3518C98.4566 82.0026 97.7094 84.0735 97.7024 86.2127V107.264C97.7072 109.711 98.6812 112.056 100.411 113.786C102.141 115.516 104.486 116.49 106.933 116.495H126.922C129.368 116.489 131.712 115.515 133.442 113.785C135.172 112.055 136.145 109.711 136.15 107.264V86.2127C136.143 84.0734 135.396 82.0024 134.036 80.3515C132.675 78.7006 130.785 77.5717 128.686 77.1566V77.1566Z" stroke="black" stroke-width="2.5" stroke-linecap="round" stroke-linejoin="round"/>
<path d="M97.7024 107.264V86.2127C97.7094 84.0735 98.4567 82.0026 99.8172 80.3518C101.178 78.701 103.068 77.572 105.166 77.1566V75.1437H107.092L107.232 29.9211L94.781 29.8304V116.874L100.326 113.7C98.6435 111.981 97.7015 109.67 97.7024 107.264Z" fill="black"/>
<path d="M130.291 69.1685H103.563C102.1 69.1685 100.914 70.3547 100.914 71.8179V73.459C100.914 74.9222 102.1 76.1084 103.563 76.1084H130.291C131.754 76.1084 132.94 74.9222 132.94 73.459V71.8179C132.94 70.3547 131.754 69.1685 130.291 69.1685Z" fill="#D3D3D3"/>
</g>
<defs>
<clipPath id="clip0_1_157">
<rect width="137.65" height="120" fill="white"/>
</clipPath>
</defs>
</svg>
