<svg width="12" height="12" viewBox="0 0 12 12" fill="none" xmlns="http://www.w3.org/2000/svg">
<path d="M5.64379 0C5.29529 0 4.99406 0.224645 4.86214 0.583345H4.86287L3.74407 3.63169L0.783091 3.86974C0.437888 3.89777 0.148386 4.14922 0.0421129 4.51483C-0.0645264 4.88206 0.0347838 5.27163 0.301199 5.52024L2.56921 7.6436L1.85865 10.8386C1.79488 11.1213 1.85058 11.4085 2.00963 11.6344C2.17123 11.8627 2.42446 12 2.67878 12C2.83342 12 2.9855 11.9521 3.12403 11.857L5.64562 10.122L8.16722 11.857C8.30538 11.9521 8.45746 12 8.61247 12C8.86679 12 9.12001 11.8623 9.28162 11.6344C9.44067 11.4089 9.49637 11.1209 9.4326 10.8386V10.8378L8.72204 7.6436L10.9882 5.52268L10.989 5.52187C11.2524 5.26798 11.3528 4.87678 11.2473 4.51117C11.1388 4.14394 10.8519 3.8933 10.5067 3.86527L7.54718 3.62722L6.42545 0.581313C6.29389 0.225457 5.99229 0.000406229 5.64379 0.000406229V0Z" fill="#FFD35B"/>
</svg>
